<?xml version="1.0" encoding="UTF-8" standalone="no"?>
<svg
   xmlns:dc="http://purl.org/dc/elements/1.1/"
   xmlns:cc="http://creativecommons.org/ns#"
   xmlns:rdf="http://www.w3.org/1999/02/22-rdf-syntax-ns#"
   xmlns:svg="http://www.w3.org/2000/svg"
   xmlns="http://www.w3.org/2000/svg"
   xmlns:xlink="http://www.w3.org/1999/xlink"
   xmlns:sodipodi="http://sodipodi.sourceforge.net/DTD/sodipodi-0.dtd"
   xmlns:inkscape="http://www.inkscape.org/namespaces/inkscape"
   width="512"
   height="512"
   viewBox="0 0 135.46666 135.46667"
   version="1.1"
   id="svg8"
   inkscape:version="1.0.2 (e86c870879, 2021-01-15)"
   sodipodi:docname="logo.svg"
   inkscape:export-filename="/home/sergio/Documentos/Projetos/CovidVac/frontend/src/assets/icons/favicon-16x16.png"
   inkscape:export-xdpi="3.0000002"
   inkscape:export-ydpi="3.0000002">
  <defs
     id="defs2" />
  <sodipodi:namedview
     id="base"
     pagecolor="#ffffff"
     bordercolor="#666666"
     borderopacity="1.0"
     inkscape:pageopacity="0.0"
     inkscape:pageshadow="2"
     inkscape:zoom="0.35"
     inkscape:cx="315.71429"
     inkscape:cy="560"
     inkscape:document-units="mm"
     inkscape:current-layer="layer1"
     inkscape:document-rotation="0"
     showgrid="false"
     units="px"
     inkscape:window-width="1366"
     inkscape:window-height="731"
     inkscape:window-x="0"
     inkscape:window-y="0"
     inkscape:window-maximized="0" />
  <metadata
     id="metadata5">
    <rdf:RDF>
      <cc:Work
         rdf:about="">
        <dc:format>image/svg+xml</dc:format>
        <dc:type
           rdf:resource="http://purl.org/dc/dcmitype/StillImage" />
        <dc:title></dc:title>
      </cc:Work>
    </rdf:RDF>
  </metadata>
  <g
     inkscape:label="Layer 1"
     inkscape:groupmode="layer"
     id="layer1">
    <image
       sodipodi:absref="/home/sergio/Downloads/virus.svg"
       xlink:href="../../../../../../Downloads/virus.svg"
       y="6.2588415"
       x="9.5042953"
       id="image1074"
       height="69.764618"
       width="69.764618"
       inkscape:svg-dpi="96"
       preserveAspectRatio="none" />
    <g
       id="g1921"
       transform="matrix(-0.73987373,0,0,-0.73987373,206.85167,195.97771)">
      <g
         id="g4"
         transform="matrix(0.26458333,0,0,0.26458333,108.28453,85.875244)">
        <path
           style="color:#000000;font-style:normal;font-variant:normal;font-weight:normal;font-stretch:normal;font-size:medium;line-height:normal;font-family:sans-serif;font-variant-ligatures:normal;font-variant-position:normal;font-variant-caps:normal;font-variant-numeric:normal;font-variant-alternates:normal;font-variant-east-asian:normal;font-feature-settings:normal;font-variation-settings:normal;text-indent:0;text-align:start;text-decoration:none;text-decoration-line:none;text-decoration-style:solid;text-decoration-color:#000000;letter-spacing:normal;word-spacing:normal;text-transform:none;writing-mode:lr-tb;direction:ltr;text-orientation:mixed;dominant-baseline:auto;baseline-shift:baseline;text-anchor:start;white-space:normal;shape-padding:0;shape-margin:0;inline-size:0;clip-rule:evenodd;display:inline;overflow:visible;visibility:visible;isolation:auto;mix-blend-mode:normal;color-interpolation:sRGB;color-interpolation-filters:linearRGB;solid-color:#000000;solid-opacity:1;vector-effect:none;fill:#f9f7f8;fill-opacity:1;fill-rule:evenodd;stroke-width:1;stroke-linecap:butt;stroke-linejoin:miter;stroke-miterlimit:4;stroke-dasharray:none;stroke-dashoffset:0;stroke-opacity:1;color-rendering:auto;image-rendering:auto;shape-rendering:auto;text-rendering:auto;enable-background:accumulate;stop-color:#000000;stop-opacity:1;stroke:none;opacity:1"
           d="m 164.69,208.295 -64.855,64.857 6.52,6.548 20.862,20.863 31.209,-18.482 33.675,-46.403 z"
           id="path2" />
      </g>
      <g
         id="g8"
         transform="matrix(0.26458333,0,0,0.26458333,108.28453,85.875244)">
        <path
           style="color:#000000;font-style:normal;font-variant:normal;font-weight:normal;font-stretch:normal;font-size:medium;line-height:normal;font-family:sans-serif;font-variant-ligatures:normal;font-variant-position:normal;font-variant-caps:normal;font-variant-numeric:normal;font-variant-alternates:normal;font-variant-east-asian:normal;font-feature-settings:normal;font-variation-settings:normal;text-indent:0;text-align:start;text-decoration:none;text-decoration-line:none;text-decoration-style:solid;text-decoration-color:#000000;letter-spacing:normal;word-spacing:normal;text-transform:none;writing-mode:lr-tb;direction:ltr;text-orientation:mixed;dominant-baseline:auto;baseline-shift:baseline;text-anchor:start;white-space:normal;shape-padding:0;shape-margin:0;inline-size:0;clip-rule:evenodd;display:inline;overflow:visible;visibility:visible;isolation:auto;mix-blend-mode:normal;color-interpolation:sRGB;color-interpolation-filters:linearRGB;solid-color:#000000;solid-opacity:1;vector-effect:none;fill:#f9f7f8;fill-opacity:1;fill-rule:evenodd;stroke-width:1;stroke-linecap:butt;stroke-linejoin:miter;stroke-miterlimit:4;stroke-dasharray:none;stroke-dashoffset:0;stroke-opacity:1;color-rendering:auto;image-rendering:auto;shape-rendering:auto;text-rendering:auto;enable-background:accumulate;stop-color:#000000;stop-opacity:1;stroke:none;opacity:1"
           d="m 215.089,271.395 -34.298,21.855 -17.858,30.302 8.447,20.608 18.963,6.775 52.128,-52.129 -7.228,-20.155 z"
           id="path6" />
      </g>
      <g
         id="g12"
         transform="matrix(0.26458333,0,0,0.26458333,108.28453,85.875244)">
        <path
           style="color:#000000;font-style:normal;font-variant:normal;font-weight:normal;font-stretch:normal;font-size:medium;line-height:normal;font-family:sans-serif;font-variant-ligatures:normal;font-variant-position:normal;font-variant-caps:normal;font-variant-numeric:normal;font-variant-alternates:normal;font-variant-east-asian:normal;font-feature-settings:normal;font-variation-settings:normal;text-indent:0;text-align:start;text-decoration:none;text-decoration-line:none;text-decoration-style:solid;text-decoration-color:#000000;letter-spacing:normal;word-spacing:normal;text-transform:none;writing-mode:lr-tb;direction:ltr;text-orientation:mixed;dominant-baseline:auto;baseline-shift:baseline;text-anchor:start;white-space:normal;shape-padding:0;shape-margin:0;inline-size:0;clip-rule:evenodd;display:inline;overflow:visible;visibility:visible;isolation:auto;mix-blend-mode:normal;color-interpolation:sRGB;color-interpolation-filters:linearRGB;solid-color:#000000;solid-opacity:1;vector-effect:none;fill:#e0dfe1;fill-opacity:1;fill-rule:evenodd;stroke-width:1;stroke-linecap:butt;stroke-linejoin:miter;stroke-miterlimit:4;stroke-dasharray:none;stroke-dashoffset:0;stroke-opacity:1;color-rendering:auto;image-rendering:auto;shape-rendering:auto;text-rendering:auto;enable-background:accumulate;stop-color:#000000;stop-opacity:1;stroke:none;opacity:1"
           d="m 53.116,337.823 h 90.859 v 41.531 H 53.116 Z"
           id="path10"
           transform="matrix(0.707,-0.707,0.707,0.707,-224.659,174.643)" />
      </g>
      <g
         id="g16"
         transform="matrix(0.26458333,0,0,0.26458333,108.28453,85.875244)">
        <path
           style="color:#000000;font-style:normal;font-variant:normal;font-weight:normal;font-stretch:normal;font-size:medium;line-height:normal;font-family:sans-serif;font-variant-ligatures:normal;font-variant-position:normal;font-variant-caps:normal;font-variant-numeric:normal;font-variant-alternates:normal;font-variant-east-asian:normal;font-feature-settings:normal;font-variation-settings:normal;text-indent:0;text-align:start;text-decoration:none;text-decoration-line:none;text-decoration-style:solid;text-decoration-color:#000000;letter-spacing:normal;word-spacing:normal;text-transform:none;writing-mode:lr-tb;direction:ltr;text-orientation:mixed;dominant-baseline:auto;baseline-shift:baseline;text-anchor:start;white-space:normal;shape-padding:0;shape-margin:0;inline-size:0;clip-rule:evenodd;display:inline;overflow:visible;visibility:visible;isolation:auto;mix-blend-mode:normal;color-interpolation:sRGB;color-interpolation-filters:linearRGB;solid-color:#000000;solid-opacity:1;vector-effect:none;fill:#c3ddff;fill-opacity:1;fill-rule:evenodd;stroke-width:1;stroke-linecap:butt;stroke-linejoin:miter;stroke-miterlimit:4;stroke-dasharray:none;stroke-dashoffset:0;stroke-opacity:1;color-rendering:auto;image-rendering:auto;shape-rendering:auto;text-rendering:auto;enable-background:accumulate;stop-color:#000000;stop-opacity:1;stroke:none;opacity:1"
           d="M 107.8,419.364 87.476,399.04 58.11,369.672 37.786,349.347 c -6.916,-6.917 -18.198,-6.917 -25.114,0 -6.888,6.888 -6.888,18.17 0,25.087 l 70.043,70.016 c 6.888,6.917 18.198,6.917 25.086,0 6.916,-6.888 6.916,-18.17 -0.001,-25.086 z"
           id="path14" />
      </g>
      <g
         id="g20"
         transform="matrix(0.26458333,0,0,0.26458333,108.28453,85.875244)">
        <path
           style="color:#000000;font-style:normal;font-variant:normal;font-weight:normal;font-stretch:normal;font-size:medium;line-height:normal;font-family:sans-serif;font-variant-ligatures:normal;font-variant-position:normal;font-variant-caps:normal;font-variant-numeric:normal;font-variant-alternates:normal;font-variant-east-asian:normal;font-feature-settings:normal;font-variation-settings:normal;text-indent:0;text-align:start;text-decoration:none;text-decoration-line:none;text-decoration-style:solid;text-decoration-color:#000000;letter-spacing:normal;word-spacing:normal;text-transform:none;writing-mode:lr-tb;direction:ltr;text-orientation:mixed;dominant-baseline:auto;baseline-shift:baseline;text-anchor:start;white-space:normal;shape-padding:0;shape-margin:0;inline-size:0;clip-rule:evenodd;display:inline;overflow:visible;visibility:visible;isolation:auto;mix-blend-mode:normal;color-interpolation:sRGB;color-interpolation-filters:linearRGB;solid-color:#000000;solid-opacity:1;vector-effect:none;fill:#c3ddff;fill-opacity:1;fill-rule:evenodd;stroke-width:1;stroke-linecap:butt;stroke-linejoin:miter;stroke-miterlimit:4;stroke-dasharray:none;stroke-dashoffset:0;stroke-opacity:1;color-rendering:auto;image-rendering:auto;shape-rendering:auto;text-rendering:auto;enable-background:accumulate;stop-color:#000000;stop-opacity:1;stroke:none;opacity:1"
           d="m 347.493,140.887 c 7.994,-7.994 7.994,-21.09 0,-29.084 l -2.183,-2.183 c -7.993,-7.994 -21.061,-7.994 -29.054,0 l -14.541,14.542 1.446,1.417 c 0.028,0.057 0.085,0.057 0.085,0.113 l 5.074,22.819 23.13,5.386 1.531,1.502 z"
           id="path18" />
      </g>
      <g
         id="g42"
         transform="matrix(0.26458333,0,0,0.26458333,108.28453,85.875244)">
        <path
           style="color:#000000;font-style:normal;font-variant:normal;font-weight:normal;font-stretch:normal;font-size:medium;line-height:normal;font-family:sans-serif;font-variant-ligatures:normal;font-variant-position:normal;font-variant-caps:normal;font-variant-numeric:normal;font-variant-alternates:normal;font-variant-east-asian:normal;font-feature-settings:normal;font-variation-settings:normal;text-indent:0;text-align:start;text-decoration:none;text-decoration-line:none;text-decoration-style:solid;text-decoration-color:#000000;letter-spacing:normal;word-spacing:normal;text-transform:none;writing-mode:lr-tb;direction:ltr;text-orientation:mixed;dominant-baseline:auto;baseline-shift:baseline;text-anchor:start;white-space:normal;shape-padding:0;shape-margin:0;inline-size:0;clip-rule:evenodd;display:inline;overflow:visible;visibility:visible;isolation:auto;mix-blend-mode:normal;color-interpolation:sRGB;color-interpolation-filters:linearRGB;solid-color:#000000;solid-opacity:1;vector-effect:none;fill:#d3cfd2;fill-opacity:1;fill-rule:evenodd;stroke-width:1;stroke-linecap:butt;stroke-linejoin:miter;stroke-miterlimit:4;stroke-dasharray:none;stroke-dashoffset:0;stroke-opacity:1;color-rendering:auto;image-rendering:auto;shape-rendering:auto;text-rendering:auto;enable-background:accumulate;stop-color:#000000;stop-opacity:1;stroke:none;opacity:1"
           d="m 70.188,357.312 h 71.256 v 19.362 H 70.188 Z"
           id="path40"
           transform="matrix(0.707,-0.707,0.707,0.707,-228.565,182.412)" />
      </g>
      <g
         id="g46"
         transform="matrix(0.26458333,0,0,0.26458333,108.28453,85.875244)">
        <path
           style="color:#000000;font-style:normal;font-variant:normal;font-weight:normal;font-stretch:normal;font-size:medium;line-height:normal;font-family:sans-serif;font-variant-ligatures:normal;font-variant-position:normal;font-variant-caps:normal;font-variant-numeric:normal;font-variant-alternates:normal;font-variant-east-asian:normal;font-feature-settings:normal;font-variation-settings:normal;text-indent:0;text-align:start;text-decoration:none;text-decoration-line:none;text-decoration-style:solid;text-decoration-color:#000000;letter-spacing:normal;word-spacing:normal;text-transform:none;writing-mode:lr-tb;direction:ltr;text-orientation:mixed;dominant-baseline:auto;baseline-shift:baseline;text-anchor:start;white-space:normal;shape-padding:0;shape-margin:0;inline-size:0;clip-rule:evenodd;display:inline;overflow:visible;visibility:visible;isolation:auto;mix-blend-mode:normal;color-interpolation:sRGB;color-interpolation-filters:linearRGB;solid-color:#000000;solid-opacity:1;vector-effect:none;fill:#a4ccff;fill-opacity:1;fill-rule:evenodd;stroke-width:1;stroke-linecap:butt;stroke-linejoin:miter;stroke-miterlimit:4;stroke-dasharray:none;stroke-dashoffset:0;stroke-opacity:1;color-rendering:auto;image-rendering:auto;shape-rendering:auto;text-rendering:auto;enable-background:accumulate;stop-color:#000000;stop-opacity:1;stroke:none;opacity:1"
           d="m 107.8,444.451 c 6.916,-6.888 6.916,-18.17 0,-25.087 L 94.109,405.673 c 6.888,6.888 6.888,18.199 0,25.087 -6.888,6.917 -18.198,6.917 -25.086,0 l 13.691,13.691 c 6.888,6.916 18.198,6.916 25.086,0 z"
           id="path44" />
      </g>
      <g
         id="g50"
         transform="matrix(0.26458333,0,0,0.26458333,108.28453,85.875244)">
        <path
           style="color:#000000;font-style:normal;font-variant:normal;font-weight:normal;font-stretch:normal;font-size:medium;line-height:normal;font-family:sans-serif;font-variant-ligatures:normal;font-variant-position:normal;font-variant-caps:normal;font-variant-numeric:normal;font-variant-alternates:normal;font-variant-east-asian:normal;font-feature-settings:normal;font-variation-settings:normal;text-indent:0;text-align:start;text-decoration:none;text-decoration-line:none;text-decoration-style:solid;text-decoration-color:#000000;letter-spacing:normal;word-spacing:normal;text-transform:none;writing-mode:lr-tb;direction:ltr;text-orientation:mixed;dominant-baseline:auto;baseline-shift:baseline;text-anchor:start;white-space:normal;shape-padding:0;shape-margin:0;inline-size:0;clip-rule:evenodd;display:inline;overflow:visible;visibility:visible;isolation:auto;mix-blend-mode:normal;color-interpolation:sRGB;color-interpolation-filters:linearRGB;solid-color:#000000;solid-opacity:1;vector-effect:none;fill:#f0f0f0;fill-opacity:1;fill-rule:evenodd;stroke-width:1;stroke-linecap:butt;stroke-linejoin:miter;stroke-miterlimit:4;stroke-dasharray:none;stroke-dashoffset:0;stroke-opacity:1;color-rendering:auto;image-rendering:auto;shape-rendering:auto;text-rendering:auto;enable-background:accumulate;stop-color:#000000;stop-opacity:1;stroke:none;opacity:1"
           d="m 190.343,350.935 52.128,-52.129 -13.691,-13.692 -52.128,52.13 12.189,12.217 z"
           id="path48" />
      </g>
      <g
         id="g54"
         transform="matrix(0.26458333,0,0,0.26458333,108.28453,85.875244)">
        <path
           style="color:#000000;font-style:normal;font-variant:normal;font-weight:normal;font-stretch:normal;font-size:medium;line-height:normal;font-family:sans-serif;font-variant-ligatures:normal;font-variant-position:normal;font-variant-caps:normal;font-variant-numeric:normal;font-variant-alternates:normal;font-variant-east-asian:normal;font-feature-settings:normal;font-variation-settings:normal;text-indent:0;text-align:start;text-decoration:none;text-decoration-line:none;text-decoration-style:solid;text-decoration-color:#000000;letter-spacing:normal;word-spacing:normal;text-transform:none;writing-mode:lr-tb;direction:ltr;text-orientation:mixed;dominant-baseline:auto;baseline-shift:baseline;text-anchor:start;white-space:normal;shape-padding:0;shape-margin:0;inline-size:0;clip-rule:evenodd;display:inline;overflow:visible;visibility:visible;isolation:auto;mix-blend-mode:normal;color-interpolation:sRGB;color-interpolation-filters:linearRGB;solid-color:#000000;solid-opacity:1;vector-effect:none;fill:#e0dfe1;fill-opacity:1;fill-rule:evenodd;stroke-width:1;stroke-linecap:butt;stroke-linejoin:miter;stroke-miterlimit:4;stroke-dasharray:none;stroke-dashoffset:0;stroke-opacity:1;color-rendering:auto;image-rendering:auto;shape-rendering:auto;text-rendering:auto;enable-background:accumulate;stop-color:#000000;stop-opacity:1;stroke:none;opacity:1"
           d="m 185.723,242.056 -52.128,52.129 5.669,21.289 23.669,8.078 52.156,-52.157 -8.163,-20.863 z"
           id="path52" />
      </g>
      <g
         id="g58"
         transform="matrix(0.26458333,0,0,0.26458333,108.28453,85.875244)">
        <path
           style="color:#000000;font-style:normal;font-variant:normal;font-weight:normal;font-stretch:normal;font-size:medium;line-height:normal;font-family:sans-serif;font-variant-ligatures:normal;font-variant-position:normal;font-variant-caps:normal;font-variant-numeric:normal;font-variant-alternates:normal;font-variant-east-asian:normal;font-feature-settings:normal;font-variation-settings:normal;text-indent:0;text-align:start;text-decoration:none;text-decoration-line:none;text-decoration-style:solid;text-decoration-color:#000000;letter-spacing:normal;word-spacing:normal;text-transform:none;writing-mode:lr-tb;direction:ltr;text-orientation:mixed;dominant-baseline:auto;baseline-shift:baseline;text-anchor:start;white-space:normal;shape-padding:0;shape-margin:0;inline-size:0;clip-rule:evenodd;display:inline;overflow:visible;visibility:visible;isolation:auto;mix-blend-mode:normal;color-interpolation:sRGB;color-interpolation-filters:linearRGB;solid-color:#000000;solid-opacity:1;vector-effect:none;fill:#c3ddff;fill-opacity:1;fill-rule:evenodd;stroke-width:1;stroke-linecap:butt;stroke-linejoin:miter;stroke-miterlimit:4;stroke-dasharray:none;stroke-dashoffset:0;stroke-opacity:1;color-rendering:auto;image-rendering:auto;shape-rendering:auto;text-rendering:auto;enable-background:accumulate;stop-color:#000000;stop-opacity:1;stroke:none;opacity:1"
           d="m 190.343,350.935 -27.41,-27.383 -29.338,-29.367 -20.891,-20.863 -6.52,-6.52 -12.189,-12.217 c -1.814,-1.786 -4.734,-1.786 -6.52,0 L 68.881,273.18 c -1.786,1.786 -1.786,4.706 0,6.491 l 39.599,39.6 29.366,29.367 39.599,39.6 c 1.786,1.814 4.734,1.814 6.52,0 l 18.567,-18.567 c 1.814,-1.786 1.814,-4.734 0,-6.52 z"
           id="path56" />
      </g>
      <g
         id="g62"
         transform="matrix(0.26458333,0,0,0.26458333,108.28453,85.875244)">
        <path
           style="color:#000000;font-style:normal;font-variant:normal;font-weight:normal;font-stretch:normal;font-size:medium;line-height:normal;font-family:sans-serif;font-variant-ligatures:normal;font-variant-position:normal;font-variant-caps:normal;font-variant-numeric:normal;font-variant-alternates:normal;font-variant-east-asian:normal;font-feature-settings:normal;font-variation-settings:normal;text-indent:0;text-align:start;text-decoration:none;text-decoration-line:none;text-decoration-style:solid;text-decoration-color:#000000;letter-spacing:normal;word-spacing:normal;text-transform:none;writing-mode:lr-tb;direction:ltr;text-orientation:mixed;dominant-baseline:auto;baseline-shift:baseline;text-anchor:start;white-space:normal;shape-padding:0;shape-margin:0;inline-size:0;clip-rule:evenodd;display:inline;overflow:visible;visibility:visible;isolation:auto;mix-blend-mode:normal;color-interpolation:sRGB;color-interpolation-filters:linearRGB;solid-color:#000000;solid-opacity:1;vector-effect:none;fill:#a4ccff;fill-opacity:1;fill-rule:evenodd;stroke-width:1;stroke-linecap:butt;stroke-linejoin:miter;stroke-miterlimit:4;stroke-dasharray:none;stroke-dashoffset:0;stroke-opacity:1;color-rendering:auto;image-rendering:auto;shape-rendering:auto;text-rendering:auto;enable-background:accumulate;stop-color:#000000;stop-opacity:1;stroke:none;opacity:1"
           d="m 202.532,369.672 c 1.814,-1.786 1.814,-4.734 0,-6.52 l -12.189,-12.217 -1.502,-1.474 c 1.814,1.786 1.814,4.734 0,6.52 l -18.567,18.567 c -1.786,1.786 -4.734,1.786 -6.52,0 l 13.691,13.691 c 1.786,1.814 4.734,1.814 6.52,0 z"
           id="path60" />
      </g>
      <g
         id="g80"
         transform="matrix(0.26458333,0,0,0.26458333,108.28453,85.875244)">
        <path
           style="color:#000000;font-style:normal;font-variant:normal;font-weight:normal;font-stretch:normal;font-size:medium;line-height:normal;font-family:sans-serif;font-variant-ligatures:normal;font-variant-position:normal;font-variant-caps:normal;font-variant-numeric:normal;font-variant-alternates:normal;font-variant-east-asian:normal;font-feature-settings:normal;font-variation-settings:normal;text-indent:0;text-align:start;text-decoration:none;text-decoration-line:none;text-decoration-style:solid;text-decoration-color:#000000;letter-spacing:normal;word-spacing:normal;text-transform:none;writing-mode:lr-tb;direction:ltr;text-orientation:mixed;dominant-baseline:auto;baseline-shift:baseline;text-anchor:start;white-space:normal;shape-padding:0;shape-margin:0;inline-size:0;clip-rule:evenodd;display:inline;overflow:visible;visibility:visible;isolation:auto;mix-blend-mode:normal;color-interpolation:sRGB;color-interpolation-filters:linearRGB;solid-color:#000000;solid-opacity:1;vector-effect:none;fill:#edf4ff;fill-opacity:1;fill-rule:evenodd;stroke-width:1;stroke-linecap:butt;stroke-linejoin:miter;stroke-miterlimit:4;stroke-dasharray:none;stroke-dashoffset:0;stroke-opacity:1;color-rendering:auto;image-rendering:auto;shape-rendering:auto;text-rendering:auto;enable-background:accumulate;stop-color:#000000;stop-opacity:1;stroke:none;opacity:1"
           d="m 333.858,201.747 0.765,-39.033 c 0.085,-4.45 0.482,-5.159 -3.175,-8.816 l -28.204,-28.205 -0.085,-0.113 c -3.6,-3.543 -4.337,-3.175 -8.731,-3.09 l -39.061,0.794 c -6.746,0.142 -5.896,0.227 -10.686,5.017 l -8.135,8.135 -26.078,26.079 -26.05,26.079 -26.078,26.051 27.382,27.411 29.366,29.339 27.382,27.411 86.37,-86.372 c 4.763,-4.762 4.876,-3.94 5.018,-10.687 z"
           id="path78" />
      </g>
      <g
         id="g84"
         transform="matrix(0.26458333,0,0,0.26458333,108.28453,85.875244)">
        <path
           style="color:#000000;font-style:normal;font-variant:normal;font-weight:normal;font-stretch:normal;font-size:medium;line-height:normal;font-family:sans-serif;font-variant-ligatures:normal;font-variant-position:normal;font-variant-caps:normal;font-variant-numeric:normal;font-variant-alternates:normal;font-variant-east-asian:normal;font-feature-settings:normal;font-variation-settings:normal;text-indent:0;text-align:start;text-decoration:none;text-decoration-line:none;text-decoration-style:solid;text-decoration-color:#000000;letter-spacing:normal;word-spacing:normal;text-transform:none;writing-mode:lr-tb;direction:ltr;text-orientation:mixed;dominant-baseline:auto;baseline-shift:baseline;text-anchor:start;white-space:normal;shape-padding:0;shape-margin:0;inline-size:0;clip-rule:evenodd;display:inline;overflow:visible;visibility:visible;isolation:auto;mix-blend-mode:normal;color-interpolation:sRGB;color-interpolation-filters:linearRGB;solid-color:#000000;solid-opacity:1;vector-effect:none;fill:#dbeaff;fill-opacity:1;fill-rule:evenodd;stroke-width:1;stroke-linecap:butt;stroke-linejoin:miter;stroke-miterlimit:4;stroke-dasharray:none;stroke-dashoffset:0;stroke-opacity:1;color-rendering:auto;image-rendering:auto;shape-rendering:auto;text-rendering:auto;enable-background:accumulate;stop-color:#000000;stop-opacity:1;stroke:none;opacity:1"
           d="m 242.471,298.806 86.37,-86.372 c 4.762,-4.762 4.875,-3.94 5.017,-10.687 l 0.765,-39.033 c 0.085,-4.45 0.482,-5.159 -3.175,-8.816 l -13.691,-13.72 -1.927,52.186 c -0.113,6.775 -0.227,5.924 -5.017,10.687 l -82.033,82.063 z"
           id="path82" />
      </g>
      <g
         id="g96"
         transform="matrix(0.26458333,0,0,0.26458333,108.28453,85.875244)">
        <path
           style="color:#000000;font-style:normal;font-variant:normal;font-weight:normal;font-stretch:normal;font-size:medium;line-height:normal;font-family:sans-serif;font-variant-ligatures:normal;font-variant-position:normal;font-variant-caps:normal;font-variant-numeric:normal;font-variant-alternates:normal;font-variant-east-asian:normal;font-feature-settings:normal;font-variation-settings:normal;text-indent:0;text-align:start;text-decoration:none;text-decoration-line:none;text-decoration-style:solid;text-decoration-color:#000000;letter-spacing:normal;word-spacing:normal;text-transform:none;writing-mode:lr-tb;direction:ltr;text-orientation:mixed;dominant-baseline:auto;baseline-shift:baseline;text-anchor:start;white-space:normal;shape-padding:0;shape-margin:0;inline-size:0;clip-rule:evenodd;display:inline;overflow:visible;visibility:visible;isolation:auto;mix-blend-mode:normal;color-interpolation:sRGB;color-interpolation-filters:linearRGB;solid-color:#000000;solid-opacity:1;vector-effect:none;fill:#d3cfd2;fill-opacity:1;fill-rule:evenodd;stroke-width:1;stroke-linecap:butt;stroke-linejoin:miter;stroke-miterlimit:4;stroke-dasharray:none;stroke-dashoffset:0;stroke-opacity:1;color-rendering:auto;image-rendering:auto;shape-rendering:auto;text-rendering:auto;enable-background:accumulate;stop-color:#000000;stop-opacity:1;stroke:none;opacity:1"
           d="m 145.285,280.947 h 73.761 v 19.362 h -73.761 z"
           id="path94"
           transform="matrix(0.707,-0.707,0.707,0.707,-152.151,213.938)" />
      </g>
      <path
         style="color:#000000;font-style:normal;font-variant:normal;font-weight:normal;font-stretch:normal;font-size:medium;line-height:normal;font-family:sans-serif;font-variant-ligatures:normal;font-variant-position:normal;font-variant-caps:normal;font-variant-numeric:normal;font-variant-alternates:normal;font-variant-east-asian:normal;font-feature-settings:normal;font-variation-settings:normal;text-indent:0;text-align:start;text-decoration:none;text-decoration-line:none;text-decoration-style:solid;text-decoration-color:#000000;letter-spacing:normal;word-spacing:normal;text-transform:none;writing-mode:lr-tb;direction:ltr;text-orientation:mixed;dominant-baseline:auto;baseline-shift:baseline;text-anchor:start;white-space:normal;shape-padding:0;shape-margin:0;inline-size:0;clip-rule:nonzero;display:inline;overflow:visible;visibility:visible;isolation:auto;mix-blend-mode:normal;color-interpolation:sRGB;color-interpolation-filters:linearRGB;solid-color:#000000;solid-opacity:1;vector-effect:none;fill:#000000;fill-opacity:1;fill-rule:nonzero;stroke-width:0.264583;stroke-linecap:butt;stroke-linejoin:miter;stroke-miterlimit:4;stroke-dasharray:none;stroke-dashoffset:0;stroke-opacity:1;color-rendering:auto;image-rendering:auto;shape-rendering:auto;text-rendering:auto;enable-background:accumulate;stop-color:#000000;stop-opacity:1;stroke:none;opacity:1"
         d="m 202.45291,115.03682 19.12488,-19.118257 c 0.77523,-0.7747 0.77523,-2.031207 5.3e-4,-2.806171 -0.7747,-0.775229 -2.03121,-0.775494 -2.80617,-5.29e-4 l -19.21563,19.209017 c -1.12422,-0.65961 -2.41009,-1.01256 -3.75232,-1.01256 -1.9857,0 -3.84916,0.76993 -5.24669,2.16746 l -2.88396,2.88396 c -0.36724,-0.0661 -11.86418,0.15028 -11.86418,0.15028 -1.92722,0.0405 -2.50878,0.18468 -3.79994,1.51236 -0.11219,0.11536 -9.44193,9.44907 -9.44193,9.44907 l -2.6e-4,2.6e-4 -2.6e-4,2.7e-4 -13.78982,13.79034 -8e-4,8e-4 -7.9e-4,7.9e-4 -12.39255,12.39282 -1.8251,-1.82562 c -0.004,-0.004 -0.007,-0.007 -0.0114,-0.0111 -1.25306,-1.23375 -3.28083,-1.22846 -4.52014,0.0111 l -4.91993,4.92019 c -0.60325,0.60325 -0.93556,1.40652 -0.93556,2.26192 0,0.8554 0.33231,1.65841 0.93556,2.26192 l 9.07468,9.07468 -10.52168,10.52804 -3.97378,-3.97404 c -2.60588,-2.60589 -6.84556,-2.60589 -9.45118,0 -2.59821,2.59847 -2.59953,6.83365 -0.003,9.44086 l 0.003,0.003 18.52824,18.52189 c 1.25651,1.26154 2.93449,1.9566 4.72466,1.9566 1.79044,0 3.46816,-0.6948 4.71911,-1.95077 1.25995,-1.25466 1.95474,-2.92921 1.9566,-4.71514 0.002,-1.78965 -0.69215,-3.47001 -1.95369,-4.73155 l -3.97457,-3.97483 10.52195,-10.52804 9.06277,9.06304 c 0.60431,0.6141 1.41288,0.95223 2.27622,0.95223 h 2.6e-4 c 0.8636,0 1.6719,-0.33813 2.26563,-0.94112 l 4.90114,-4.9014 c 0.61436,-0.60458 0.9525,-1.41314 0.9525,-2.27674 0,-0.8636 -0.33814,-1.67244 -0.94112,-2.26537 l -1.82563,-1.82615 20.26761,-20.26788 c 0.77497,-0.77496 0.77497,-2.03147 0,-2.80617 -0.77496,-0.77496 -2.03147,-0.77496 -2.80617,0 l -6.47144,6.47171 -5.79385,-5.79596 c -0.0164,-0.0177 -0.031,-0.0362 -0.0482,-0.0534 -0.0169,-0.0169 -0.0355,-0.0317 -0.0529,-0.0479 l -13.55884,-13.56386 4.0902,-4.0902 4.2029,4.20317 c 0.38735,0.38762 0.89535,0.58129 1.40309,0.58129 0.50774,0 1.01574,-0.19367 1.40309,-0.58129 0.77496,-0.77496 0.77496,-2.0312 0,-2.80617 l -4.20291,-4.20317 4.09072,-4.09098 4.20688,4.20131 c 0.38735,0.38683 0.89482,0.58024 1.40229,0.58024 0.50826,0 1.01653,-0.19394 1.40414,-0.58209 0.77444,-0.77549 0.77364,-2.032 -0.002,-2.80617 l -4.20502,-4.19947 4.09257,-4.09283 4.20661,4.20687 c 0.38735,0.38761 0.89535,0.58129 1.40309,0.58129 0.50773,0 1.01573,-0.19368 1.40308,-0.58129 0.77497,-0.77496 0.77497,-2.03121 0,-2.80617 l -4.20687,-4.20688 c 0,0 1.37927,-1.3925 1.45865,-1.47029 0.19685,-0.0138 11.59906,-0.2487 11.6832,-0.2495 0.0617,0.0537 7.97878,7.9711 8.03143,8.03143 -7.9e-4,0.0855 -0.004,0.19315 -0.006,0.28734 -0.003,0.0976 -0.22172,11.19611 -0.23654,11.39692 -0.0781,0.0796 -9.08261,9.07124 -9.08261,9.07124 -0.77497,0.77497 -0.77497,2.03147 0,2.80617 0.77496,0.77523 2.03147,0.77497 2.80617,0 0,0 8.64102,-8.63758 8.75585,-8.74924 1.3298,-1.29302 1.47426,-1.87483 1.51501,-3.80497 0,0 0.20902,-11.48847 0.14367,-11.85545 l 2.8829,-2.8829 c 2.58656,-2.58736 2.85988,-6.62279 0.82417,-9.51839 z m -67.04938,83.19823 c 0.51091,0.51118 0.79216,1.19327 0.79137,1.92141 -8e-4,0.72416 -0.28073,1.4015 -0.79402,1.91267 -0.50641,0.50826 -1.1856,0.78846 -1.91267,0.78846 -0.72708,0 -1.40626,-0.2802 -1.91585,-0.79163 l -18.53062,-18.52348 c -1.0541,-1.06019 -1.0549,-2.77892 -0.001,-3.83249 0.51038,-0.51038 1.19194,-0.79137 1.91928,-0.79137 0.72734,0 1.40891,0.28099 1.91929,0.79137 z m -3.97457,-9.58744 -4.96359,-4.96385 10.52169,-10.52803 4.96358,4.96385 z m 24.66737,-1.99443 -17.70671,-17.70724 c 0,0 0,-2.6e-4 -2.7e-4,-2.6e-4 0,0 -2.6e-4,0 -2.6e-4,-2.7e-4 l -9.9322,-9.93245 3.83461,-3.83488 2.62228,2.62308 c 0.0209,0.0228 0.0402,0.0468 0.0622,0.0688 0.022,0.022 0.0458,0.0413 0.0685,0.0619 l 14.92065,14.92488 c 0.009,0.009 0.0164,0.019 0.0254,0.0283 0.009,0.009 0.019,0.0167 0.028,0.0254 l 9.90838,9.91129 z m 13.53608,-21.71911 -10.98947,10.98973 -4.44183,-4.44315 10.98947,-10.98973 z m -7.24747,-7.25012 -10.98947,10.99 -4.95935,-4.96067 10.98974,-10.99 z m -7.76473,-7.76763 -10.98999,10.99026 -4.44183,-4.44315 10.99,-10.99026 z m 44.20183,-28.16781 -2.43735,2.43734 -5.4647,-5.45994 2.44369,-2.44369 c 0.64823,-0.64823 1.51501,-1.00515 2.44052,-1.00515 0.92551,0 1.79229,0.35692 2.44051,1.00515 l 0.57759,0.57758 c 1.34779,1.34779 1.34752,3.54092 -2.6e-4,4.88871 z"
         id="path102" />
    </g>
  </g>
</svg>
